<mxfile host="app.diagrams.net" modified="2022-06-19T17:07:37.667Z" agent="5.0 (Windows NT 10.0; Win64; x64) AppleWebKit/537.36 (KHTML, like Gecko) Chrome/102.0.0.0 Safari/537.36" etag="VjM7BXv_DZqZVKoS59V1" version="14.9.2" type="github">
  <diagram id="CHIU8txxuQPD1xZP6IqR" name="Page-1">
    <mxGraphModel dx="1038" dy="539" grid="1" gridSize="10" guides="1" tooltips="1" connect="1" arrows="1" fold="1" page="1" pageScale="1" pageWidth="850" pageHeight="1100" math="0" shadow="0">
      <root>
        <mxCell id="0" />
        <mxCell id="1" parent="0" />
        <mxCell id="SwNPHfKPnHSK_fZYj3vI-9" style="edgeStyle=orthogonalEdgeStyle;rounded=0;orthogonalLoop=1;jettySize=auto;html=1;" edge="1" parent="1" source="SwNPHfKPnHSK_fZYj3vI-1" target="SwNPHfKPnHSK_fZYj3vI-5">
          <mxGeometry relative="1" as="geometry" />
        </mxCell>
        <mxCell id="SwNPHfKPnHSK_fZYj3vI-1" value="INPUT LIST" style="rounded=0;whiteSpace=wrap;html=1;" vertex="1" parent="1">
          <mxGeometry x="365" y="130" width="120" height="60" as="geometry" />
        </mxCell>
        <mxCell id="SwNPHfKPnHSK_fZYj3vI-3" style="edgeStyle=orthogonalEdgeStyle;rounded=0;orthogonalLoop=1;jettySize=auto;html=1;" edge="1" parent="1" source="SwNPHfKPnHSK_fZYj3vI-2" target="SwNPHfKPnHSK_fZYj3vI-1">
          <mxGeometry relative="1" as="geometry" />
        </mxCell>
        <mxCell id="SwNPHfKPnHSK_fZYj3vI-2" value="START" style="rounded=1;whiteSpace=wrap;html=1;" vertex="1" parent="1">
          <mxGeometry x="380" y="60" width="90" height="30" as="geometry" />
        </mxCell>
        <mxCell id="SwNPHfKPnHSK_fZYj3vI-7" style="edgeStyle=orthogonalEdgeStyle;rounded=0;orthogonalLoop=1;jettySize=auto;html=1;" edge="1" parent="1" source="SwNPHfKPnHSK_fZYj3vI-5" target="SwNPHfKPnHSK_fZYj3vI-6">
          <mxGeometry relative="1" as="geometry" />
        </mxCell>
        <mxCell id="SwNPHfKPnHSK_fZYj3vI-5" value="Is List Empty?" style="shape=parallelogram;perimeter=parallelogramPerimeter;whiteSpace=wrap;html=1;fixedSize=1;" vertex="1" parent="1">
          <mxGeometry x="350" y="230" width="150" height="40" as="geometry" />
        </mxCell>
        <mxCell id="SwNPHfKPnHSK_fZYj3vI-17" style="edgeStyle=orthogonalEdgeStyle;rounded=0;orthogonalLoop=1;jettySize=auto;html=1;entryX=1;entryY=0.5;entryDx=0;entryDy=0;" edge="1" parent="1" source="SwNPHfKPnHSK_fZYj3vI-6" target="SwNPHfKPnHSK_fZYj3vI-12">
          <mxGeometry relative="1" as="geometry">
            <mxPoint x="630" y="640" as="targetPoint" />
            <Array as="points">
              <mxPoint x="630" y="635" />
            </Array>
          </mxGeometry>
        </mxCell>
        <mxCell id="SwNPHfKPnHSK_fZYj3vI-6" value="OUTPUT N/A" style="rhombus;whiteSpace=wrap;html=1;" vertex="1" parent="1">
          <mxGeometry x="580" y="210" width="100" height="80" as="geometry" />
        </mxCell>
        <mxCell id="SwNPHfKPnHSK_fZYj3vI-8" value="&lt;b&gt;yes&lt;br&gt;&lt;/b&gt;" style="text;html=1;strokeColor=none;fillColor=none;align=center;verticalAlign=middle;whiteSpace=wrap;rounded=0;" vertex="1" parent="1">
          <mxGeometry x="520" y="230" width="40" height="20" as="geometry" />
        </mxCell>
        <mxCell id="SwNPHfKPnHSK_fZYj3vI-16" style="edgeStyle=orthogonalEdgeStyle;rounded=0;orthogonalLoop=1;jettySize=auto;html=1;entryX=0.5;entryY=0;entryDx=0;entryDy=0;" edge="1" parent="1" source="SwNPHfKPnHSK_fZYj3vI-11" target="SwNPHfKPnHSK_fZYj3vI-13">
          <mxGeometry relative="1" as="geometry" />
        </mxCell>
        <mxCell id="SwNPHfKPnHSK_fZYj3vI-11" value="Untested item left in list?" style="shape=parallelogram;perimeter=parallelogramPerimeter;whiteSpace=wrap;html=1;fixedSize=1;" vertex="1" parent="1">
          <mxGeometry x="350" y="480" width="160" height="40" as="geometry" />
        </mxCell>
        <mxCell id="SwNPHfKPnHSK_fZYj3vI-12" value="STOP" style="rounded=1;whiteSpace=wrap;html=1;" vertex="1" parent="1">
          <mxGeometry x="385" y="620" width="90" height="30" as="geometry" />
        </mxCell>
        <mxCell id="SwNPHfKPnHSK_fZYj3vI-14" style="edgeStyle=orthogonalEdgeStyle;rounded=0;orthogonalLoop=1;jettySize=auto;html=1;" edge="1" parent="1" source="SwNPHfKPnHSK_fZYj3vI-13" target="SwNPHfKPnHSK_fZYj3vI-12">
          <mxGeometry relative="1" as="geometry" />
        </mxCell>
        <mxCell id="SwNPHfKPnHSK_fZYj3vI-13" value="return min 1 and min 2" style="rounded=0;whiteSpace=wrap;html=1;" vertex="1" parent="1">
          <mxGeometry x="360" y="560" width="140" height="30" as="geometry" />
        </mxCell>
      </root>
    </mxGraphModel>
  </diagram>
</mxfile>
